<svg xmlns="http://www.w3.org/2000/svg" viewBox="0 0 64 64" role="img" aria-labelledby="title description">
  <title id="title">Wormhole hourglass</title>
  <desc id="description">Two portal mouths joined by a narrow hourglass-shaped wormhole throat.</desc>

  <g fill="#8B5CF6" stroke="#8B5CF6" stroke-linejoin="round">
    <path d="M10 14C11.5 22.5 21.5 26 27 31.8 21.5 38 11.5 41.5 10 50h44c-1.5-8.5-11.5-12-17-18.2C42.5 26 52.5 22.5 54 14Z" fill-opacity="0.16" stroke-width="2.5"/>
    <path d="M15 20.5c6 3.8 12.2 5.1 15.2 8.6M49 20.5c-6 3.8-12.2 5.1-15.2 8.6M15 43.5c6-3.8 12.2-5.1 15.2-8.6M49 43.5c-6-3.8-12.2-5.1-15.2-8.6" fill="none" stroke-width="1.8" stroke-linecap="round"/>
    <ellipse cx="32" cy="14" rx="22" ry="7.5" fill-opacity="0.2" stroke-width="3.5"/>
    <ellipse cx="32" cy="14" rx="13.5" ry="3.8" fill="none" stroke-width="1.8"/>
    <path d="M17 13.2c5.8-3.2 23.8-4.2 31 .1" fill="none" stroke-width="1.8" stroke-linecap="round"/>
    <ellipse cx="32" cy="50" rx="22" ry="7.5" fill-opacity="0.2" stroke-width="3.5"/>
    <ellipse cx="32" cy="50" rx="13.5" ry="3.8" fill="none" stroke-width="1.8"/>
    <path d="M17 49.2c5.8-3.2 23.8-4.2 31 .1" fill="none" stroke-width="1.8" stroke-linecap="round"/>
    <ellipse cx="32" cy="32" rx="6.2" ry="2.6" stroke-width="1.5"/>
    <circle cx="8" cy="27" r="1.3" stroke="none"/>
    <circle cx="56" cy="37" r="1.1" stroke="none"/>
  </g>
</svg>
